<svg xmlns="http://www.w3.org/2000/svg" xmlns:xlink="http://www.w3.org/1999/xlink" version="1.1" width="256" height="256" viewBox="0 0 256 256" xml:space="preserve">

<defs>
</defs>
<g style="stroke: none; stroke-width: 0; stroke-dasharray: none; stroke-linecap: butt; stroke-linejoin: miter; stroke-miterlimit: 10; fill: none; fill-rule: nonzero; opacity: 1;" transform="translate(45.02412451361867 45.024124513618645) scale(1.83 1.83)" >
	<path d="M 76.662 77.645 H 13.337 c -3.975 0 -7.209 -3.234 -7.209 -7.209 c 0 -4.127 1.8 -8.031 4.938 -10.711 c 1.355 -1.158 2.133 -2.845 2.133 -4.628 V 31.801 C 13.199 14.266 27.465 0 45 0 s 31.801 14.266 31.801 31.801 v 23.296 c 0 1.783 0.777 3.47 2.134 4.629 c 3.137 2.68 4.937 6.583 4.937 10.71 C 83.871 74.41 80.637 77.645 76.662 77.645 z M 14.18 69.645 h 61.64 c -0.193 -1.484 -0.928 -2.852 -2.081 -3.837 c -3.139 -2.682 -4.938 -6.585 -4.938 -10.711 V 31.801 C 68.801 18.677 58.124 8 45 8 S 21.199 18.677 21.199 31.801 v 23.296 c 0 4.126 -1.799 8.029 -4.937 10.711 C 15.108 66.793 14.374 68.16 14.18 69.645 z" style="stroke: none; stroke-width: 1; stroke-dasharray: none; stroke-linecap: butt; stroke-linejoin: miter; stroke-miterlimit: 10; fill: rgb(255,255,255); fill-rule: nonzero; opacity: 1;" transform=" matrix(1 0 0 1 0 0) " stroke-linecap="round" />
	<path d="M 45 90 c -8.975 0 -16.277 -7.302 -16.277 -16.276 c 0 -0.072 0.003 -0.165 0.007 -0.249 c 0.089 -2.13 1.844 -3.83 3.997 -3.83 c 2.209 0 4 1.791 4 4 c 0 0.048 -0.001 0.104 -0.003 0.162 C 36.768 78.332 40.464 82 45 82 c 4.534 0 8.229 -3.666 8.276 -8.189 c -0.001 -0.007 -0.001 -0.013 -0.001 -0.018 c -0.082 -2.208 1.642 -4.063 3.849 -4.146 c 2.196 -0.087 4.063 1.641 4.146 3.849 c 0.006 0.09 0.007 0.138 0.007 0.228 C 61.276 82.698 53.975 90 45 90 z" style="stroke: none; stroke-width: 1; stroke-dasharray: none; stroke-linecap: butt; stroke-linejoin: miter; stroke-miterlimit: 10; fill: rgb(255,255,255); fill-rule: nonzero; opacity: 1;" transform=" matrix(1 0 0 1 0 0) " stroke-linecap="round" />
</g>
</svg>