<svg xmlns="http://www.w3.org/2000/svg" xmlns:xlink="http://www.w3.org/1999/xlink" version="1.1" width="256" height="256" viewBox="0 0 256 256" xml:space="preserve">

<defs>
</defs>
<g style="stroke: none; stroke-width: 0; stroke-dasharray: none; stroke-linecap: butt; stroke-linejoin: miter; stroke-miterlimit: 10; fill: none; fill-rule: nonzero; opacity: 1;" transform="translate(1.4065934065934016 1.4065934065934016) scale(2.81 2.81)" >
	<path d="M 75.525 90 h -61.05 c -3.489 0 -6.327 -2.838 -6.327 -6.326 v -5.94 c 0 -13.373 8.949 -25.484 21.763 -29.453 c 1.346 -0.416 2.25 -1.635 2.25 -3.031 c 0 -0.851 -0.342 -1.657 -0.962 -2.269 c -3.775 -3.723 -5.854 -8.684 -5.854 -13.97 v -9.356 c 0 -5.382 2.133 -10.405 6.007 -14.144 c 3.873 -3.737 8.983 -5.695 14.362 -5.498 c 10.444 0.371 18.941 9.362 18.941 20.041 v 8.956 c 0 5.285 -2.079 10.246 -5.853 13.97 c -0.621 0.612 -0.963 1.418 -0.963 2.269 c 0 1.396 0.904 2.615 2.25 3.031 c 12.813 3.968 21.762 16.08 21.762 29.453 v 5.94 C 81.851 87.162 79.014 90 75.525 90 z M 44.998 6.001 c -3.561 0 -6.91 1.349 -9.479 3.828 c -2.691 2.598 -4.174 6.087 -4.174 9.827 v 9.356 c 0 3.667 1.444 7.112 4.067 9.698 c 1.773 1.748 2.749 4.071 2.749 6.541 c 0 4.042 -2.603 7.564 -6.476 8.763 C 21.36 57.21 14.148 66.964 14.148 77.734 v 5.94 c 0 0.18 0.146 0.326 0.327 0.326 h 61.05 c 0.18 0 0.326 -0.146 0.326 -0.326 v -5.94 c 0 -10.769 -7.211 -20.523 -17.537 -23.72 c -3.873 -1.199 -6.476 -4.721 -6.476 -8.763 c 0 -2.47 0.977 -4.793 2.751 -6.541 c 2.621 -2.586 4.065 -6.03 4.065 -9.697 v -8.956 c 0 -7.487 -5.901 -13.787 -13.154 -14.045 C 45.333 6.004 45.165 6.001 44.998 6.001 z" style="stroke: none; stroke-width: 1; stroke-dasharray: none; stroke-linecap: butt; stroke-linejoin: miter; stroke-miterlimit: 10; fill: rgb(255,255,255); fill-rule: nonzero; opacity: 1;" transform=" matrix(1 0 0 1 0 0) " stroke-linecap="round" />
</g>
</svg>