<svg xmlns="http://www.w3.org/2000/svg" xmlns:xlink="http://www.w3.org/1999/xlink" version="1.1" width="256" height="256" viewBox="0 0 256 256" xml:space="preserve">

<defs>
</defs>
<g style="stroke: none; stroke-width: 0; stroke-dasharray: none; stroke-linecap: butt; stroke-linejoin: miter; stroke-miterlimit: 10; fill: none; fill-rule: nonzero; opacity: 1;" transform="translate(1.4065934065934016 1.4065934065934016) scale(2.81 2.81)" >
	<path d="M 74.799 90 H 15.201 c -3.996 0 -7.248 -3.251 -7.248 -7.247 v -5.799 c 0 -13.52 9.046 -25.764 21.999 -29.776 c 0.864 -0.267 1.443 -1.044 1.443 -1.935 c 0 -0.542 -0.221 -1.058 -0.621 -1.453 c -3.89 -3.836 -6.033 -8.95 -6.033 -14.4 v -9.133 c 0 -5.548 2.199 -10.725 6.192 -14.579 c 3.992 -3.851 9.252 -5.854 14.801 -5.667 C 56.5 0.394 65.259 9.652 65.259 20.648 v 8.743 c 0 5.449 -2.143 10.563 -6.033 14.401 c -0.4 0.395 -0.621 0.911 -0.621 1.452 c 0 0.891 0.579 1.668 1.441 1.935 c 12.953 4.012 22 16.256 22 29.776 v 5.799 C 82.046 86.749 78.795 90 74.799 90 z M 15.954 82 h 58.093 v -5.046 c 0 -10.047 -6.73 -19.149 -16.366 -22.133 c -4.231 -1.31 -7.075 -5.158 -7.075 -9.578 c 0 -2.661 1.095 -5.266 3.004 -7.149 c 2.354 -2.322 3.65 -5.413 3.65 -8.704 v -8.743 c 0 -6.739 -5.297 -12.409 -11.808 -12.64 c -3.365 -0.123 -6.547 1.097 -8.962 3.428 c -2.417 2.332 -3.747 5.465 -3.747 8.822 v 9.133 c 0 3.292 1.296 6.383 3.65 8.704 c 1.909 1.883 3.003 4.488 3.003 7.149 c 0 4.419 -2.844 8.268 -7.077 9.578 c -9.634 2.984 -16.364 12.086 -16.364 22.133 V 82 z" style="stroke: none; stroke-width: 1; stroke-dasharray: none; stroke-linecap: butt; stroke-linejoin: miter; stroke-miterlimit: 10; fill: rgb(255,255,255); fill-rule: nonzero; opacity: 1;" transform=" matrix(1 0 0 1 0 0) " stroke-linecap="round" />
</g>
</svg>